<?xml version="1.0" encoding="UTF-8" standalone="no"?>
<svg id="svg5675" xmlns:rdf="http://www.w3.org/1999/02/22-rdf-syntax-ns#" xmlns="http://www.w3.org/2000/svg" viewBox="0 0 36 50" version="1.1" xmlns:cc="http://creativecommons.org/ns#" xmlns:xlink="http://www.w3.org/1999/xlink" xmlns:dc="http://purl.org/dc/elements/1.1/">
 <defs id="defs5677">
  <linearGradient id="linearGradient3822" y2="1129.5" gradientUnits="userSpaceOnUse" y1="799.29" gradientTransform="matrix(-0.2007736,0,0,0.2007736,-56.970119,-161.1218)" x2="-421.59" x1="-322.2">
   <stop id="stop556" stop-color="#090" offset="0"/>
   <stop id="stop557" stop-color="#334966" offset="1"/>
  </linearGradient>
 </defs>
 <metadata id="metadata5680">
  <rdf:RDF>
   <cc:Work rdf:about="">
    <dc:format>image/svg+xml</dc:format>
    <dc:type rdf:resource="http://purl.org/dc/dcmitype/StillImage"/>
    <dc:title/>
   </cc:Work>
  </rdf:RDF>
 </metadata>
 <g id="layer1" transform="translate(0,2)">
  <path id="path3714-8-5-8-7" fill="url(#linearGradient3822)" d="m21.026-0.51764c3.824,1.2109,3.694,6.5249,3.1478,9.7885-1.4682,2.1854,0.16763,4.8561-0.52801,7.2703,4.7257,0.52931,12.971,1.5108,11.596,8.2248,0.49259,1.6938-2.0334,2.8987-0.30462,4.2038,1.4613,1.8186,0.43796,4.6067-1.1169,5.5644,1.6028,2.1975,0.0343,6.0482-2.3557,6.2955,1.7267,4.0957-3.4621,7.4001-7.0063,5.7878-3.265-1.397-6.814-0.953-10.114-1.848-3.126-1.051-4.7656-4.822-8.3463-4.326-4.595-0.757-4.7734-6.558-5.2802-10.195-0.04203-4.24-0.73561-9.986,3.1275-12.774,3.3334-1.169,7.493-0.421,9.38-4.17,2.592-3.3364,2.302-7.9432,4.125-11.67,0.714-1.3629,2.083-2.3513,3.676-2.1526z"/>
  <g id="g3908" style="stroke-dasharray:none;" transform="matrix(-0.17325816,0,0,0.2007736,-44.675699,-153.09085)" stroke="#7abe03" stroke-miterlimit="4" stroke-width="2.74217629" fill="#0aa912">
   <path id="path3714-8-5" stroke-linejoin="miter" style="stroke-dasharray:none;" d="m-375.58,931.71c6.2994,5.7136,19.344,17.925,10.683,22.268-11.954,5.9949-29.416,9.8909-44.612,9.4709-9.9216-0.27423-19.699-2.8624-19.699-2.8624m46.335-56.017c4.695-0.0823,18.615,17.699,14.853,23.799-2.1847,3.5426-30.164,10.642-43.786,10.793-10.28,0.11435-29.815-8.0315-29.815-8.0315m11.351-53.933s5.907,2.1968,9.002,2.649c8.2008,1.1982,24.863,0.0984,24.863,0.0984,5.9291,0.0234,11.501,4.3273,15.524,8.6832,3.4646,3.7517,6.3929,13.923,6.3929,13.923s-26.435,10.735-40.317,10.465c-11.226-0.21869-29.154-8.4441-29.154-8.4441m68.155,52.538s15.586,17.877,8.9481,22.432c-5.9664,4.0949-19.876,5.2149-29.948,7.2087,0,0-7.8369,2.0596-11.855,2.3466-3.1627,0.22597-6.4216,0.23388-9.499-0.50168-9.0156-2.1548-13.693-5.468-15.892-14.424-0.78821-3.2104,1.9449-6.3698,2.2364-9.6631,0.1179-1.332,0.62864-2.96-0.20395-4.0064-2.2902-2.8781-10.613-3.0218-10.613-3.0218-3.2574-0.92749-4.8864-4.9918-6.0248-8.1816-0.89892-2.5188-0.96742-5.3976-0.4079-8.0128,0.63373-2.9622,3.966-5.0679,4.1353-8.0925,0.074-1.3224-0.59331-2.669-1.4019-3.718-2.0615-2.6746-6.4832-2.9964-8.2566-5.8701-1.5584-2.5252-1.8779-5.8767-1.3574-8.7981,0.93828-5.2658,7.105-8.7308,7.7736-14.038,0.5443-4.3202-4.0455-5.9542-4.991-10.205-1.0003-4.4967-1.4808-11.467-0.81583-16.026,0.54661-3.7469,2.4515-7.4788,5.1691-10.116,4.0353-3.9152,15.245-7.2181,15.245-7.2181l38.434-8.0907,7.7062-1.3725c-1.8216-6.298-0.61089-11.45-0.35163-17.903,0.70284-6.9817,3.3573-14.812-1.0549-20.736-4.1337-5.5493-2.2395-12.377-2.6959-18.713-0.55909-7.762,2.4672-16.075,8.0877-22.455,3.4113-3.8725,11.35-1.9539,14.175,0.35109,11.918,10.851,9.8038,23.279,14.425,38.389,4.8695,6.6396,7.0461,13.575,9.1426,20.635,13.174,12.167,17.262,15.994,24.498,21.241,12.093,1.1277,23.951,3.6462,35.867,5.6644,24.172,5.0499,19.364,92.476-1.2894,100.85-9.1091,3.6917-24.849,2.731-24.849,2.731s-20.537,18.205-35.164,22.051c-7.1524,1.8803-22.974,1.1126-22.974,1.1126" stroke="#7abe03" stroke-linecap="butt" stroke-miterlimit="4" stroke-width="2.74217629" fill="#0aa912"/>
  </g>
 </g>
</svg>