<?xml version="1.0" encoding="UTF-8" standalone="no"?>
<svg id="svg5675" xmlns:rdf="http://www.w3.org/1999/02/22-rdf-syntax-ns#" xmlns="http://www.w3.org/2000/svg" viewBox="0 0 36 50" version="1.1" xmlns:cc="http://creativecommons.org/ns#" xmlns:xlink="http://www.w3.org/1999/xlink" xmlns:dc="http://purl.org/dc/elements/1.1/">
 <defs id="defs5677">
  <linearGradient id="linearGradient3842" y2="1129.5" gradientUnits="userSpaceOnUse" y1="799.29" gradientTransform="matrix(-0.2015931,0,0,-0.2015931,-57.348135,208.26865)" x2="-421.59" x1="-322.2">
   <stop id="stop556-7" stop-color="#990500" offset="0"/>
   <stop id="stop557-3" stop-color="#663349" offset="1"/>
  </linearGradient>
 </defs>
 <metadata id="metadata5680">
  <rdf:RDF>
   <cc:Work rdf:about="">
    <dc:format>image/svg+xml</dc:format>
    <dc:type rdf:resource="http://purl.org/dc/dcmitype/StillImage"/>
    <dc:title/>
   </cc:Work>
  </rdf:RDF>
 </metadata>
 <g id="layer1" transform="translate(0,2)">
  <path id="path3714-8-5-8-7-2" fill="url(#linearGradient3842)" d="m20.966,47.009c3.8396-1.2159,3.7091-6.5515,3.1606-9.8285-1.4742-2.1943,0.16832-4.8759-0.53017-7.3,4.745-0.53148,13.024-1.5169,11.643-8.2584,0.4946-1.7007-2.0417-2.9105-0.30587-4.221,1.4672-1.826,0.43975-4.6255-1.1215-5.5872,1.6094-2.2065,0.03444-6.0728-2.3654-6.3212,1.7337-4.1124-3.4763-7.4303-7.0349-5.8115-3.278,1.4019-6.842,0.95678-10.155,1.8556-3.139,1.055-4.785,4.8412-8.3803,4.3433-4.6138,0.76-4.7929,6.5848-5.3017,10.237-0.042198,4.2571-0.73861,10.027,3.1402,12.826,3.347,1.1739,7.5238,0.42341,9.4183,4.1872,2.6027,3.3502,2.3115,7.9758,4.1417,11.718,0.7174,1.3685,2.0913,2.3609,3.6908,2.1615z"/>
  <path id="path3714-8-5-2" stroke-linejoin="miter" style="stroke-dasharray:none;" d="m19.373,2.2194c1.2687-0.24876,2.9013-0.53383,4.6536-0.93576,0,0,1.3634-0.41519,2.0624-0.47307,0.5502-0.04555,1.1171-0.04715,1.6525,0.10114,1.5684,0.43439,2.3821,1.1023,2.7646,2.9079,0.13712,0.6472-0.33835,1.2841-0.38906,1.948-0.02051,0.26852-0.10936,0.59672,0.03548,0.80766,0.39842,0.58021,1.8462,0.60917,1.8462,0.60917,0.56667,0.18698,0.85007,1.0063,1.0481,1.6493,0.15638,0.50777,0.1683,1.0881,0.07096,1.6153-0.11025,0.59717-0.68994,1.0217-0.7194,1.6314-0.01288,0.2666,0.10322,0.53805,0.24388,0.74953,0.35863,0.53918,1.1278,0.60405,1.4364,1.1834,0.27111,0.50907,0.32669,1.1847,0.23613,1.7736-0.16323,1.0616-1.236,1.7601-1.3523,2.8299-0.09469,0.87092,0.70377,1.2003,0.86826,2.0572,0.17401,0.9065,0.25761,2.3117,0.14193,3.2306-0.09509,0.75536-0.42647,1.5077-0.89925,2.0392-0.702,0.78927-2.6521,1.4551-2.6521,1.4551l-8.0269,1.9077c0.31689,1.2696,0.10627,2.3083,0.06117,3.6092-0.12227,1.4075-0.58405,2.9861,0.18352,4.1802,0.71912,1.1187,0.3896,2.4951,0.469,3.7723,0.09726,1.5648-0.42921,3.2406-1.407,4.5268-0.59344,0.78067-1.9745,0.39389-2.4659-0.07078-2.074-2.187-1.706-4.692-2.51-7.739-0.847-1.338-1.226-2.736-1.591-4.159-2.292-2.453-3.003-3.225-4.262-4.282-2.1033-0.228-4.1662-0.735-6.2393-1.142-4.2052-1.018-3.3686-18.643,0.2243-20.33,1.5847-0.74422,4.3229-0.55056,4.3229-0.55056s3.5727-3.6701,6.1173-4.4453c1.2443-0.37906,4.0747-0.45661,4.0747-0.45661z" stroke="#be5c03" stroke-linecap="butt" stroke-miterlimit="4" stroke-width="0.51352859" fill="#981a19"/>
 </g>
</svg>